<?xml version="1.0" encoding="UTF-8"?>
<svg xmlns="http://www.w3.org/2000/svg" width="512" height="512" viewBox="0 0 512 512" fill="none">
  <path d="M27 119.36C27 106.106 37.7452 95.3604 51 95.3604H205.125C211.408 95.3604 217.441 97.8247 221.928 102.224L418.803 295.272C423.406 299.786 426 305.961 426 312.408V448.36C426 461.615 415.255 472.36 402 472.36H261.319C256.885 472.36 252.539 471.132 248.761 468.813L38.4418 339.671C31.3324 335.305 27 327.561 27 319.218V119.36Z" fill="url(#paint0_linear_25_241)"></path>
  <path d="M476.987 69.5289C476.987 56.403 466.444 45.8505 453.321 45.8419L223.404 45.6909C216.404 45.6863 209.711 48.7395 205.079 54.0502L125.285 145.535C124.264 146.706 123.356 147.972 122.575 149.315L57.9972 260.367C55.8374 264.081 54.7004 268.292 54.7036 272.564L54.8221 431.293C54.8319 444.409 65.367 454.949 78.4796 454.962L222.782 455.107C225.498 455.11 228.2 454.652 230.774 453.752L460.632 373.391C470.399 369.976 476.978 360.735 476.978 350.429L476.987 69.5289Z" fill="url(#paint1_linear_25_241)"></path>
  <rect x="93.001" y="114.359" width="305" height="305" rx="152.5" fill="url(#paint2_linear_25_241)"></rect>
  <path d="M196.833 357H261C264.404 357 267.668 355.645 270.075 353.234C272.481 350.823 273.833 347.553 273.833 344.143V305.571C290.851 305.571 307.172 298.798 319.206 286.743C331.24 274.687 338 258.335 338 241.286C338 224.236 331.24 207.885 319.206 195.829C307.172 183.773 290.851 177 273.833 177H196.833C193.43 177 190.166 178.355 187.759 180.766C185.352 183.177 184 186.447 184 189.857V344.143C184 347.553 185.352 350.823 187.759 353.234C190.166 355.645 193.43 357 196.833 357ZM209.667 202.714H273.833C284.044 202.714 293.837 206.778 301.057 214.012C308.277 221.245 312.333 231.056 312.333 241.286C312.333 251.515 308.277 261.326 301.057 268.56C293.837 275.793 284.044 279.857 273.833 279.857H261C257.596 279.857 254.332 281.212 251.925 283.623C249.519 286.034 248.167 289.304 248.167 292.714V331.286H209.667V202.714Z" fill="white"></path>
  <defs>
    <linearGradient id="paint0_linear_25_241" x1="511.006" y1="457.174" x2="31.5448" y2="75.3529" gradientUnits="userSpaceOnUse">
      <stop stop-color="#3FBEAA"></stop>
      <stop offset="1" stop-color="#098BD6"></stop>
    </linearGradient>
    <linearGradient id="paint1_linear_25_241" x1="64.2092" y1="466.295" x2="521.067" y2="136.371" gradientUnits="userSpaceOnUse">
      <stop stop-color="#2790D3"></stop>
      <stop offset="0.895" stop-color="#35B5B3"></stop>
    </linearGradient>
    <linearGradient id="paint2_linear_25_241" x1="245.501" y1="114.359" x2="245.501" y2="419.359" gradientUnits="userSpaceOnUse">
      <stop stop-color="#0ADAAC"></stop>
      <stop offset="1" stop-color="#02C3EF"></stop>
    </linearGradient>
  </defs>
</svg>
